# xmcd
# 
# Track frame offsets:
#     150
#     18877
#     36380
#     55157
# 
# Disc length: 1040
# 
# Revision: 0
# Processed by: cddbd v1.5.2PL0 Copyright (c) Steve Scherf et al.
# Submitted via: fre:ac v1.0.17
# 
DISCID=2a040e04
DTITLE=Motor Ace - Hey Driver
DYEAR=2001
DGENRE=
TTITLE0=Hey Driver (Radio Edit)
TTITLE1=Chromakey (live)
TTITLE2=American Shoes (live)
TTITLE3=Hey Driver (Album Version)
EXTD=
EXTT0=
EXTT1=
EXTT2=
EXTT3=
PLAYORDER=
